<?xml version="1.0" encoding="UTF-8"?>
<svg version="1.1" xmlns="http://www.w3.org/2000/svg" width="512" height="512">
<path d="M0 0 C1.45108658 0.00273422 1.45108658 0.00273422 2.93148804 0.00552368 C17.26440977 0.05095174 31.21023917 0.55983928 45.3125 3.3125 C46.65803955 3.55395752 46.65803955 3.55395752 48.03076172 3.80029297 C107.84088904 14.62287989 165.35495829 48.68064457 202.3125 97.3125 C202.72918945 97.85277832 203.14587891 98.39305664 203.57519531 98.94970703 C211.2584873 108.9447116 218.00092968 119.40459036 224.3125 130.3125 C224.70679199 130.98974121 225.10108398 131.66698242 225.50732422 132.36474609 C238.68961173 155.2833756 247.29510918 180.85822563 252.625 206.6875 C252.77243652 207.39817627 252.91987305 208.10885254 253.07177734 208.84106445 C256.05713787 224.48358366 256.6873098 240.11919606 256.625 256 C256.62226578 257.45108658 256.62226578 257.45108658 256.61947632 258.93148804 C256.57404826 273.26440977 256.06516072 287.21023917 253.3125 301.3125 C253.15152832 302.20952637 252.99055664 303.10655273 252.82470703 304.03076172 C242.00212011 363.84088904 207.94435543 421.35495829 159.3125 458.3125 C158.77222168 458.72918945 158.23194336 459.14587891 157.67529297 459.57519531 C147.6802884 467.2584873 137.22040964 474.00092968 126.3125 480.3125 C125.63525879 480.70679199 124.95801758 481.10108398 124.26025391 481.50732422 C101.3416244 494.68961173 75.76677437 503.29510918 49.9375 508.625 C49.22682373 508.77243652 48.51614746 508.91987305 47.78393555 509.07177734 C32.14141634 512.05713787 16.50580394 512.6873098 0.625 512.625 C-0.34239105 512.62317719 -1.3097821 512.62135437 -2.30648804 512.61947632 C-16.63940977 512.57404826 -30.58523917 512.06516072 -44.6875 509.3125 C-45.58452637 509.15152832 -46.48155273 508.99055664 -47.40576172 508.82470703 C-107.21588904 498.00212011 -164.72995829 463.94435543 -201.6875 415.3125 C-202.10418945 414.77222168 -202.52087891 414.23194336 -202.95019531 413.67529297 C-210.6334873 403.6802884 -217.37592968 393.22040964 -223.6875 382.3125 C-224.08179199 381.63525879 -224.47608398 380.95801758 -224.88232422 380.26025391 C-238.06461173 357.3416244 -246.67010918 331.76677437 -252 305.9375 C-252.14743652 305.22682373 -252.29487305 304.51614746 -252.44677734 303.78393555 C-255.43213787 288.14141634 -256.0623098 272.50580394 -256 256.625 C-255.99817719 255.65760895 -255.99635437 254.6902179 -255.99447632 253.69351196 C-255.94904826 239.36059023 -255.44016072 225.41476083 -252.6875 211.3125 C-252.44604248 209.96696045 -252.44604248 209.96696045 -252.19970703 208.59423828 C-241.37712011 148.78411096 -207.31935543 91.27004171 -158.6875 54.3125 C-158.14722168 53.89581055 -157.60694336 53.47912109 -157.05029297 53.04980469 C-147.0552884 45.3665127 -136.59540964 38.62407032 -125.6875 32.3125 C-125.01025879 31.91820801 -124.33301758 31.52391602 -123.63525391 31.11767578 C-100.7166244 17.93538827 -75.14177437 9.32989082 -49.3125 4 C-48.60182373 3.85256348 -47.89114746 3.70512695 -47.15893555 3.55322266 C-31.51641634 0.56786213 -15.88080394 -0.0623098 0 0 Z M-46.6875 37.3125 C-47.63383301 37.52680664 -48.58016602 37.74111328 -49.55517578 37.96191406 C-69.18825741 42.57553714 -87.950171 49.73967115 -105.6875 59.3125 C-107.42 60.23289062 -107.42 60.23289062 -109.1875 61.171875 C-136.42050618 76.1500284 -161.7142278 97.90546639 -179.6875 123.3125 C-180.16880371 123.99248047 -180.65010742 124.67246094 -181.14599609 125.37304688 C-205.34504418 159.93646108 -222.51829673 201.62544529 -222.92578125 244.3671875 C-222.9355751 245.2179184 -222.94536896 246.06864929 -222.95545959 246.94515991 C-223.13015716 266.07231471 -222.94573593 284.56524364 -218.6875 303.3125 C-218.47319336 304.25883301 -218.25888672 305.20516602 -218.03808594 306.18017578 C-213.42446286 325.81325741 -206.26032885 344.575171 -196.6875 362.3125 C-196.07390625 363.4675 -195.4603125 364.6225 -194.828125 365.8125 C-179.8499716 393.04550618 -158.09453361 418.3392278 -132.6875 436.3125 C-132.00751953 436.79380371 -131.32753906 437.27510742 -130.62695312 437.77099609 C-96.06353892 461.97004418 -54.37455471 479.14329673 -11.6328125 479.55078125 C-10.7820816 479.5605751 -9.93135071 479.57036896 -9.05484009 479.58045959 C10.07231471 479.75515716 28.56524364 479.57073593 47.3125 475.3125 C48.25883301 475.09819336 49.20516602 474.88388672 50.18017578 474.66308594 C69.81325741 470.04946286 88.575171 462.88532885 106.3125 453.3125 C107.4675 452.69890625 108.6225 452.0853125 109.8125 451.453125 C137.04550618 436.4749716 162.3392278 414.71953361 180.3125 389.3125 C180.79380371 388.63251953 181.27510742 387.95253906 181.77099609 387.25195312 C205.97004418 352.68853892 223.14329673 310.99955471 223.55078125 268.2578125 C223.5605751 267.4070816 223.57036896 266.55635071 223.58045959 265.67984009 C223.75515716 246.55268529 223.57073593 228.05975636 219.3125 209.3125 C218.99104004 207.89300049 218.99104004 207.89300049 218.66308594 206.44482422 C214.04946286 186.81174259 206.88532885 168.049829 197.3125 150.3125 C196.69890625 149.1575 196.0853125 148.0025 195.453125 146.8125 C180.4749716 119.57949382 158.71953361 94.2857722 133.3125 76.3125 C132.63251953 75.83119629 131.95253906 75.34989258 131.25195312 74.85400391 C96.68853892 50.65495582 54.99955471 33.48170327 12.2578125 33.07421875 C11.4070816 33.0644249 10.55635071 33.05463104 9.67984009 33.04454041 C-9.44731471 32.86984284 -27.94024364 33.05426407 -46.6875 37.3125 Z " fill="#000000" transform="translate(255.6875,-0.3125)"/>
<path d="M0 0 C4.97498002 2.30981215 7.32126061 5.27820244 10 10 C10.50780869 13.44009209 10.50780869 13.44009209 10.51898193 17.28927612 C10.52648319 18.00085723 10.53398444 18.71243834 10.541713 19.44558251 C10.56193199 21.81802599 10.55389943 24.18950844 10.54589844 26.56201172 C10.55463665 28.26731814 10.5651233 29.97261636 10.57722473 31.67790222 C10.6050751 36.29936566 10.60848963 40.92056144 10.60750484 45.54209661 C10.61063477 50.37481519 10.63625465 55.20741336 10.65948486 60.04006958 C10.70004227 69.18781252 10.72038498 78.33548419 10.73345876 87.48330319 C10.74932966 97.89926941 10.78774569 108.31511434 10.82805204 118.7310102 C10.91044746 140.15396679 10.96454183 161.57691768 11 183 C11.81130875 182.17980881 12.62261749 181.35961761 13.45851135 180.51457214 C21.11290135 172.77902696 28.77788351 165.05411747 36.45330906 157.33944225 C40.39880165 153.37309255 44.34049408 149.40311571 48.27368164 145.42456055 C52.07094231 141.58377677 55.87794627 137.75290251 59.69184685 133.92864418 C61.14377616 132.46933524 62.59218554 131.00651525 64.03695869 129.54012108 C66.06428568 127.4836758 68.10387332 125.44017443 70.14672852 123.39916992 C70.73871033 122.79280701 71.33069214 122.18644409 71.94061279 121.56170654 C76.26037134 117.28399169 80.38573163 114.44701358 86.58984375 113.6796875 C93.5164984 114.25594829 97.49525592 116.72944943 102 122 C104.35984362 125.9330727 104.46100191 129.46681453 104 134 C101.07552736 141.26824629 96.60109663 145.95793758 91.07226562 151.41357422 C90.17102463 152.31861191 89.26978363 153.2236496 88.3412323 154.15611267 C85.88546892 156.62150926 83.41749013 159.07432355 80.94674492 161.52469397 C78.35685101 164.09693285 75.77759489 166.67979962 73.19689941 169.26126099 C68.86608503 173.59020704 64.52762242 177.911364 60.18408203 182.22753906 C55.16497395 187.21514179 50.15645118 192.21317605 45.15380526 197.21728694 C39.81890892 202.5535344 34.47642835 207.88213852 29.13168144 213.20851755 C27.59469669 214.74124343 26.05913468 216.27538251 24.52388 217.80984116 C21.66446854 220.66686922 18.79662573 223.51528434 15.92773438 226.36279297 C15.07878098 227.21265274 14.22982758 228.06251251 13.35514832 228.93812561 C12.57291397 229.71182999 11.79067963 230.48553436 10.98474121 231.28268433 C10.30780968 231.95626417 9.63087814 232.62984402 8.93343353 233.32383537 C4.24008426 237.39267245 0.07545068 237.36538699 -5.875 237.375 C-6.66519531 237.39949219 -7.45539063 237.42398438 -8.26953125 237.44921875 C-9.04425781 237.45308594 -9.81898438 237.45695313 -10.6171875 237.4609375 C-11.31440918 237.46915527 -12.01163086 237.47737305 -12.72998047 237.48583984 C-19.83085131 235.96607936 -25.17767087 229.11818308 -30.07885742 224.21166992 C-30.97224319 223.32500137 -31.86562897 222.43833282 -32.78608704 221.52479553 C-35.22460179 219.10386795 -37.65667018 216.67656454 -40.08704543 214.24746871 C-41.6079786 212.72796126 -43.13032877 211.20988851 -44.65319252 209.69231606 C-49.97201504 204.3919661 -55.28567679 199.08650543 -60.59448242 193.77612305 C-65.53415148 188.8352517 -70.48487595 183.90565389 -75.44090003 178.98119277 C-79.70467209 174.7436053 -83.96066353 170.4983084 -88.21072465 166.24697 C-90.74526731 163.71191858 -93.28278559 161.18003704 -95.8281765 158.65587425 C-98.66651924 155.84056252 -101.4885113 153.00938734 -104.30932617 150.17651367 C-105.14938202 149.34769684 -105.98943787 148.51888 -106.85494995 147.66494751 C-111.76697737 142.69937372 -115.43555941 138.56370865 -116.3203125 131.41015625 C-115.82007541 125.39730646 -114.16284179 121.85987664 -109.88671875 117.56640625 C-105.26638715 113.73047877 -101.03732885 113.80458978 -95.34375 114.3203125 C-89.22335292 116.09522765 -84.79942801 120.91923043 -80.44384766 125.32910156 C-79.81874298 125.95391418 -79.19363831 126.57872681 -78.54959106 127.22247314 C-76.49963405 129.27381535 -74.45683863 131.33213392 -72.4140625 133.390625 C-70.98817987 134.82024063 -69.56185291 136.24941321 -68.13510132 137.67816162 C-64.39230291 141.4285738 -60.65555133 145.18495454 -56.92004395 148.94262695 C-53.10268648 152.78049147 -49.27961768 156.61265736 -45.45703125 160.4453125 C-37.96576604 167.95798781 -30.48087909 175.47698345 -23 183 C-22.99853344 182.11393507 -22.99706688 181.22787014 -22.99555588 180.31495476 C-22.95850759 158.75710011 -22.89951911 137.19940293 -22.81609726 115.64167595 C-22.7762844 105.21651831 -22.74390331 94.7914364 -22.72900391 84.36621094 C-22.71599905 75.27979795 -22.68906419 66.19355145 -22.64538693 57.10723221 C-22.62274591 52.29586396 -22.6070909 47.48470124 -22.60811615 42.67327499 C-22.6088612 38.14402445 -22.59097283 33.6152287 -22.55883217 29.08609581 C-22.55031783 27.42447801 -22.54859366 25.76280929 -22.55419731 24.10117912 C-22.56083597 21.83001367 -22.54292227 19.56029584 -22.51898193 17.28927612 C-22.51345118 15.38393003 -22.51345118 15.38393003 -22.50780869 13.44009209 C-21.73934855 8.23424642 -19.24693045 5.18458392 -15.5 1.625 C-10.33499991 -0.77303575 -5.5997712 -0.75381535 0 0 Z " fill="#000000" transform="translate(262,128)"/>
</svg>
