<?xml version="1.0" encoding="UTF-8"?>
<svg version="1.1" xmlns="http://www.w3.org/2000/svg" width="512" height="512">
<path d="M0 0 C1.45108658 0.00273422 1.45108658 0.00273422 2.93148804 0.00552368 C17.26440977 0.05095174 31.21023917 0.55983928 45.3125 3.3125 C46.65803955 3.55395752 46.65803955 3.55395752 48.03076172 3.80029297 C107.84088904 14.62287989 165.35495829 48.68064457 202.3125 97.3125 C202.72918945 97.85277832 203.14587891 98.39305664 203.57519531 98.94970703 C211.2584873 108.9447116 218.00092968 119.40459036 224.3125 130.3125 C224.70679199 130.98974121 225.10108398 131.66698242 225.50732422 132.36474609 C238.68961173 155.2833756 247.29510918 180.85822563 252.625 206.6875 C252.77243652 207.39817627 252.91987305 208.10885254 253.07177734 208.84106445 C256.05713787 224.48358366 256.6873098 240.11919606 256.625 256 C256.62226578 257.45108658 256.62226578 257.45108658 256.61947632 258.93148804 C256.57404826 273.26440977 256.06516072 287.21023917 253.3125 301.3125 C253.15152832 302.20952637 252.99055664 303.10655273 252.82470703 304.03076172 C242.00212011 363.84088904 207.94435543 421.35495829 159.3125 458.3125 C158.77222168 458.72918945 158.23194336 459.14587891 157.67529297 459.57519531 C147.6802884 467.2584873 137.22040964 474.00092968 126.3125 480.3125 C125.63525879 480.70679199 124.95801758 481.10108398 124.26025391 481.50732422 C101.3416244 494.68961173 75.76677437 503.29510918 49.9375 508.625 C49.22682373 508.77243652 48.51614746 508.91987305 47.78393555 509.07177734 C32.14141634 512.05713787 16.50580394 512.6873098 0.625 512.625 C-0.34239105 512.62317719 -1.3097821 512.62135437 -2.30648804 512.61947632 C-16.63940977 512.57404826 -30.58523917 512.06516072 -44.6875 509.3125 C-45.58452637 509.15152832 -46.48155273 508.99055664 -47.40576172 508.82470703 C-107.21588904 498.00212011 -164.72995829 463.94435543 -201.6875 415.3125 C-202.10418945 414.77222168 -202.52087891 414.23194336 -202.95019531 413.67529297 C-210.6334873 403.6802884 -217.37592968 393.22040964 -223.6875 382.3125 C-224.08179199 381.63525879 -224.47608398 380.95801758 -224.88232422 380.26025391 C-238.06461173 357.3416244 -246.67010918 331.76677437 -252 305.9375 C-252.14743652 305.22682373 -252.29487305 304.51614746 -252.44677734 303.78393555 C-255.43213787 288.14141634 -256.0623098 272.50580394 -256 256.625 C-255.99817719 255.65760895 -255.99635437 254.6902179 -255.99447632 253.69351196 C-255.94904826 239.36059023 -255.44016072 225.41476083 -252.6875 211.3125 C-252.44604248 209.96696045 -252.44604248 209.96696045 -252.19970703 208.59423828 C-241.37712011 148.78411096 -207.31935543 91.27004171 -158.6875 54.3125 C-158.14722168 53.89581055 -157.60694336 53.47912109 -157.05029297 53.04980469 C-147.0552884 45.3665127 -136.59540964 38.62407032 -125.6875 32.3125 C-125.01025879 31.91820801 -124.33301758 31.52391602 -123.63525391 31.11767578 C-100.7166244 17.93538827 -75.14177437 9.32989082 -49.3125 4 C-48.60182373 3.85256348 -47.89114746 3.70512695 -47.15893555 3.55322266 C-31.51641634 0.56786213 -15.88080394 -0.0623098 0 0 Z M-46.6875 37.3125 C-47.63383301 37.52680664 -48.58016602 37.74111328 -49.55517578 37.96191406 C-69.18825741 42.57553714 -87.950171 49.73967115 -105.6875 59.3125 C-107.42 60.23289062 -107.42 60.23289062 -109.1875 61.171875 C-136.42050618 76.1500284 -161.7142278 97.90546639 -179.6875 123.3125 C-180.16880371 123.99248047 -180.65010742 124.67246094 -181.14599609 125.37304688 C-205.34504418 159.93646108 -222.51829673 201.62544529 -222.92578125 244.3671875 C-222.9355751 245.2179184 -222.94536896 246.06864929 -222.95545959 246.94515991 C-223.13015716 266.07231471 -222.94573593 284.56524364 -218.6875 303.3125 C-218.47319336 304.25883301 -218.25888672 305.20516602 -218.03808594 306.18017578 C-213.42446286 325.81325741 -206.26032885 344.575171 -196.6875 362.3125 C-196.07390625 363.4675 -195.4603125 364.6225 -194.828125 365.8125 C-179.8499716 393.04550618 -158.09453361 418.3392278 -132.6875 436.3125 C-132.00751953 436.79380371 -131.32753906 437.27510742 -130.62695312 437.77099609 C-96.06353892 461.97004418 -54.37455471 479.14329673 -11.6328125 479.55078125 C-10.7820816 479.5605751 -9.93135071 479.57036896 -9.05484009 479.58045959 C10.07231471 479.75515716 28.56524364 479.57073593 47.3125 475.3125 C48.25883301 475.09819336 49.20516602 474.88388672 50.18017578 474.66308594 C69.81325741 470.04946286 88.575171 462.88532885 106.3125 453.3125 C107.4675 452.69890625 108.6225 452.0853125 109.8125 451.453125 C137.04550618 436.4749716 162.3392278 414.71953361 180.3125 389.3125 C180.79380371 388.63251953 181.27510742 387.95253906 181.77099609 387.25195312 C205.97004418 352.68853892 223.14329673 310.99955471 223.55078125 268.2578125 C223.5605751 267.4070816 223.57036896 266.55635071 223.58045959 265.67984009 C223.75515716 246.55268529 223.57073593 228.05975636 219.3125 209.3125 C218.99104004 207.89300049 218.99104004 207.89300049 218.66308594 206.44482422 C214.04946286 186.81174259 206.88532885 168.049829 197.3125 150.3125 C196.69890625 149.1575 196.0853125 148.0025 195.453125 146.8125 C180.4749716 119.57949382 158.71953361 94.2857722 133.3125 76.3125 C132.63251953 75.83119629 131.95253906 75.34989258 131.25195312 74.85400391 C96.68853892 50.65495582 54.99955471 33.48170327 12.2578125 33.07421875 C11.4070816 33.0644249 10.55635071 33.05463104 9.67984009 33.04454041 C-9.44731471 32.86984284 -27.94024364 33.05426407 -46.6875 37.3125 Z " fill="#000000" transform="translate(255.6875,-0.3125)"/>
<path d="M0 0 C1.18529297 -0.03673828 1.18529297 -0.03673828 2.39453125 -0.07421875 C3.16925781 -0.07808594 3.94398438 -0.08195313 4.7421875 -0.0859375 C5.78802002 -0.09826416 5.78802002 -0.09826416 6.85498047 -0.11083984 C13.95585131 1.40892064 19.30267087 8.25681692 24.20385742 13.16333008 C25.54393608 14.4933329 25.54393608 14.4933329 26.91108704 15.85020447 C29.34960179 18.27113205 31.78167018 20.69843546 34.21204543 23.12753129 C35.7329786 24.64703874 37.25532877 26.16511149 38.77819252 27.68268394 C44.09701504 32.9830339 49.41067679 38.28849457 54.71948242 43.59887695 C59.65915148 48.5397483 64.60987595 53.46934611 69.56590003 58.39380723 C73.82967209 62.6313947 78.08566353 66.8766916 82.33572465 71.12803 C84.87026731 73.66308142 87.40778559 76.19496296 89.9531765 78.71912575 C92.79151924 81.53443748 95.6135113 84.36561266 98.43432617 87.19848633 C99.27438202 88.02730316 100.11443787 88.85612 100.97994995 89.71005249 C105.89197737 94.67562628 109.56055941 98.81129135 110.4453125 105.96484375 C109.94507541 111.97769354 108.28784179 115.51512336 104.01171875 119.80859375 C99.39138715 123.64452123 95.16232885 123.57041022 89.46875 123.0546875 C83.34835292 121.27977235 78.92442801 116.45576957 74.56884766 112.04589844 C73.94374298 111.42108582 73.31863831 110.79627319 72.67459106 110.15252686 C70.62463405 108.10118465 68.58183863 106.04286608 66.5390625 103.984375 C65.11317987 102.55475937 63.68685291 101.12558679 62.26010132 99.69683838 C58.51730291 95.9464262 54.78055133 92.19004546 51.04504395 88.43237305 C47.22768648 84.59450853 43.40461768 80.76234264 39.58203125 76.9296875 C32.09076604 69.41701219 24.60587909 61.89801655 17.125 54.375 C17.12353344 55.26106493 17.12206688 56.14712986 17.12055588 57.06004524 C17.08350759 78.61789989 17.02451911 100.17559707 16.94109726 121.73332405 C16.9012844 132.15848169 16.86890331 142.5835636 16.85400391 153.00878906 C16.84099905 162.09520205 16.81406419 171.18144855 16.77038693 180.26776779 C16.74774591 185.07913604 16.7320909 189.89029876 16.73311615 194.70172501 C16.7338612 199.23097555 16.71597283 203.7597713 16.68383217 208.28890419 C16.67531783 209.95052199 16.67359366 211.61219071 16.67919731 213.27382088 C16.68583597 215.54498633 16.66792227 217.81470416 16.64398193 220.08572388 C16.63845118 221.99106997 16.63845118 221.99106997 16.63280869 223.93490791 C15.86434855 229.14075358 13.37193045 232.19041608 9.625 235.75 C4.45999991 238.14803575 -0.2752288 238.12881535 -5.875 237.375 C-10.84998002 235.06518785 -13.19626061 232.09679756 -15.875 227.375 C-16.38280869 223.93490791 -16.38280869 223.93490791 -16.39398193 220.08572388 C-16.40148319 219.37414277 -16.40898444 218.66256166 -16.416713 217.92941749 C-16.43693199 215.55697401 -16.42889943 213.18549156 -16.42089844 210.81298828 C-16.42963665 209.10768186 -16.4401233 207.40238364 -16.45222473 205.69709778 C-16.4800751 201.07563434 -16.48348963 196.45443856 -16.48250484 191.83290339 C-16.48563477 187.00018481 -16.51125465 182.16758664 -16.53448486 177.33493042 C-16.57504227 168.18718748 -16.59538498 159.03951581 -16.60845876 149.89169681 C-16.62432966 139.47573059 -16.66274569 129.05988566 -16.70305204 118.6439898 C-16.78544746 97.22103321 -16.83954183 75.79808232 -16.875 54.375 C-17.68630875 55.19519119 -18.49761749 56.01538239 -19.33351135 56.86042786 C-26.98790135 64.59597304 -34.65288351 72.32088253 -42.32830906 80.03555775 C-46.27380165 84.00190745 -50.21549408 87.97188429 -54.14868164 91.95043945 C-57.94594231 95.79122323 -61.75294627 99.62209749 -65.56684685 103.44635582 C-67.01877616 104.90566476 -68.46718554 106.36848475 -69.91195869 107.83487892 C-71.93928568 109.8913242 -73.97887332 111.93482557 -76.02172852 113.97583008 C-76.61371033 114.58219299 -77.20569214 115.18855591 -77.81561279 115.81329346 C-82.13537134 120.09100831 -86.26073163 122.92798642 -92.46484375 123.6953125 C-99.3914984 123.11905171 -103.37025592 120.64555057 -107.875 115.375 C-110.23484362 111.4419273 -110.33600191 107.90818547 -109.875 103.375 C-106.95052736 96.10675371 -102.47609663 91.41706242 -96.94726562 85.96142578 C-95.59540413 84.60386925 -95.59540413 84.60386925 -94.2162323 83.21888733 C-91.76046892 80.75349074 -89.29249013 78.30067645 -86.82174492 75.85030603 C-84.23185101 73.27806715 -81.65259489 70.69520038 -79.07189941 68.11373901 C-74.74108503 63.78479296 -70.40262242 59.463636 -66.05908203 55.14746094 C-61.03997395 50.15985821 -56.03145118 45.16182395 -51.02880526 40.15771306 C-45.69390892 34.8214656 -40.35142835 29.49286148 -35.00668144 24.16648245 C-33.46969669 22.63375657 -31.93413468 21.09961749 -30.39888 19.56515884 C-27.53946854 16.70813078 -24.67162573 13.85971566 -21.80273438 11.01220703 C-20.95378098 10.16234726 -20.10482758 9.31248749 -19.23014832 8.43687439 C-18.44791397 7.66317001 -17.66567963 6.88946564 -16.85974121 6.09231567 C-16.18280968 5.41873583 -15.50587814 4.74515598 -14.80843353 4.05116463 C-10.11508426 -0.01767245 -5.95045068 0.00961301 0 0 Z " fill="#000000" transform="translate(255.875,146.625)"/>
</svg>
